<svg width="12" height="13" viewBox="0 0 12 13" fill="none" xmlns="http://www.w3.org/2000/svg">
<path d="M3.08333 3.00033V1.25033C3.08333 1.09562 3.14479 0.947243 3.25419 0.837847C3.36358 0.72845 3.51196 0.666992 3.66667 0.666992H10.6667C10.8214 0.666992 10.9697 0.72845 11.0791 0.837847C11.1885 0.947243 11.25 1.09562 11.25 1.25033V9.41699C11.25 9.5717 11.1885 9.72007 11.0791 9.82947C10.9697 9.93887 10.8214 10.0003 10.6667 10.0003H8.91667V11.7503C8.91667 12.0723 8.65417 12.3337 8.32925 12.3337H1.33742C1.26049 12.3341 1.18423 12.3194 1.11302 12.2903C1.04181 12.2612 0.977053 12.2183 0.922467 12.1641C0.867882 12.1099 0.824546 12.0454 0.794948 11.9744C0.765351 11.9034 0.750075 11.8273 0.75 11.7503L0.75175 3.58366C0.75175 3.26166 1.01425 3.00033 1.33917 3.00033H3.08333ZM1.91842 4.16699L1.91667 11.167H7.75V4.16699H1.91842ZM4.25 3.00033H8.91667V8.83366H10.0833V1.83366H4.25V3.00033Z" fill="#4361EE"/>
</svg>
