<svg width="20" height="18" viewBox="0 0 20 18" fill="none" xmlns="http://www.w3.org/2000/svg">
<path d="M1 0H19C19.2652 0 19.5196 0.105357 19.7071 0.292893C19.8946 0.48043 20 0.734784 20 1V17C20 17.2652 19.8946 17.5196 19.7071 17.7071C19.5196 17.8946 19.2652 18 19 18H1C0.734784 18 0.48043 17.8946 0.292893 17.7071C0.105357 17.5196 0 17.2652 0 17V1C0 0.734784 0.105357 0.48043 0.292893 0.292893C0.48043 0.105357 0.734784 0 1 0ZM2 2V16H18V2H2ZM18 9L14.464 12.536L13.05 11.121L15.172 9L13.05 6.879L14.464 5.464L18 9ZM4.828 9L6.95 11.121L5.536 12.536L2 9L5.536 5.464L6.95 6.88L4.828 9ZM9.244 14H7.116L10.756 4H12.884L9.244 14Z" fill="#2E2E2E"/>
</svg>
