<svg width="12" height="15" viewBox="0 0 12 15" fill="none" xmlns="http://www.w3.org/2000/svg">
<path d="M12 4.8335V13.4955C12.0006 13.583 11.984 13.6699 11.951 13.751C11.9181 13.8321 11.8695 13.9059 11.808 13.9683C11.7466 14.0306 11.6734 14.0802 11.5928 14.1143C11.5121 14.1484 11.4255 14.1662 11.338 14.1668H0.662C0.486542 14.1668 0.318261 14.0972 0.194131 13.9732C0.070001 13.8492 0.000176695 13.681 0 13.5055V1.49483C0 1.13683 0.299333 0.833496 0.668 0.833496H7.998L12 4.8335ZM10.6667 5.50016H7.33333V2.16683H1.33333V12.8335H10.6667V5.50016Z" fill="#2E2E2E"/>
</svg>
