<svg width="40" height="40" viewBox="0 0 40 40" fill="none" xmlns="http://www.w3.org/2000/svg">
<path d="M20.0008 40.0016C31.0469 40.0016 40.0016 31.0469 40.0016 20.0008C40.0016 8.95467 31.0469 0 20.0008 0C8.95467 0 0 8.95467 0 20.0008C0 31.0469 8.95467 40.0016 20.0008 40.0016Z" fill="#616161"/>
<path d="M20.0008 32.7281C12.9707 32.7281 7.27346 27.0309 7.27346 20.0008C7.27346 12.9707 12.9707 7.27346 20.0008 7.27346C23.5142 7.27346 26.6957 8.69817 29.0004 11.0012L34.1432 5.85841C30.5234 2.23861 25.5224 0 20.0008 0C8.95443 0 0 8.95443 0 20.0008C0 31.0472 8.95443 40.0016 20.0008 40.0016C25.524 40.0016 30.5234 37.763 34.1448 34.1448L29.002 29.002C26.6957 31.3034 23.5142 32.7281 20.0008 32.7281Z" fill="#9E9E9E"/>
<path d="M32.7281 20.0012H26.3637C26.3637 16.4878 23.5142 13.6367 19.9992 13.6367C16.4841 13.6367 13.6363 16.4861 13.6363 20.0012C13.6363 21.7128 14.3132 23.2648 15.414 24.4107L15.4092 24.4156L23.2886 32.295L23.2902 32.2966C28.7248 30.8461 32.7281 25.8918 32.7281 20.0012Z" fill="#424242"/>
<path d="M40 20H32.7265C32.7265 25.8906 28.7215 30.8449 23.2902 32.2954L28.9069 37.9121C35.4825 34.6356 40 27.8456 40 20Z" fill="#616161"/>
<path d="M20.0008 39.7731C8.99311 39.7731 0.0644667 30.8799 0.00161167 19.8867C0.00161167 19.9254 0 19.9625 0 20.0011C0 31.0475 8.95443 40.002 20.0008 40.002C31.0472 40.002 40.0016 31.0475 40.0016 20.0011C40.0016 19.9625 40 19.9254 40 19.8867C39.9371 30.8799 31.0069 39.7731 20.0008 39.7731Z" fill="#212121" fill-opacity="0.1"/>
<path d="M23.2918 32.2954L23.4691 32.4727C28.8102 30.9642 32.7282 26.055 32.7282 20.2272V20C32.7282 25.8906 28.7232 30.8449 23.2918 32.2954Z" fill="white" fill-opacity="0.05"/>
<path d="M36.365 18.1816H20.0001C18.996 18.1816 18.1821 18.9955 18.1821 19.9996C18.1821 21.0037 18.996 21.8176 20.0001 21.8176H36.3634C37.3674 21.8176 38.1813 21.0037 38.1813 19.9996C38.1829 18.9955 37.369 18.1816 36.365 18.1816Z" fill="#9E9E9E"/>
<path opacity="0.5" d="M36.365 18.1816H20.0001C18.996 18.1816 18.1821 18.9955 18.1821 19.9996C18.1821 21.0037 18.996 21.8176 20.0001 21.8176H36.3634C37.3674 21.8176 38.1813 21.0037 38.1813 19.9996C38.1829 18.9955 37.369 18.1816 36.365 18.1816Z" fill="#BDBDBD"/>
<path d="M3.63592 21.3637C4.38894 21.3637 4.99939 20.7532 4.99939 20.0002C4.99939 19.2472 4.38894 18.6367 3.63592 18.6367C2.88289 18.6367 2.27245 19.2472 2.27245 20.0002C2.27245 20.7532 2.88289 21.3637 3.63592 21.3637Z" fill="#BDBDBD"/>
<path d="M20.0008 4.99843C20.7538 4.99843 21.3643 4.38798 21.3643 3.63496C21.3643 2.88193 20.7538 2.27148 20.0008 2.27148C19.2478 2.27148 18.6373 2.88193 18.6373 3.63496C18.6373 4.38798 19.2478 4.99843 20.0008 4.99843Z" fill="#BDBDBD"/>
<path d="M20.0008 37.7269C20.7538 37.7269 21.3643 37.1165 21.3643 36.3635C21.3643 35.6104 20.7538 35 20.0008 35C19.2478 35 18.6373 35.6104 18.6373 36.3635C18.6373 37.1165 19.2478 37.7269 20.0008 37.7269Z" fill="#BDBDBD"/>
<path d="M8.40967 9.7914C9.1627 9.7914 9.77315 9.18095 9.77315 8.42792C9.77315 7.6749 9.1627 7.06445 8.40967 7.06445C7.65665 7.06445 7.0462 7.6749 7.0462 8.42792C7.0462 9.18095 7.65665 9.7914 8.40967 9.7914Z" fill="#BDBDBD"/>
<path d="M8.40967 32.9535C9.1627 32.9535 9.77315 32.3431 9.77315 31.59C9.77315 30.837 9.1627 30.2266 8.40967 30.2266C7.65665 30.2266 7.0462 30.837 7.0462 31.59C7.0462 32.3431 7.65665 32.9535 8.40967 32.9535Z" fill="#BDBDBD"/>
<path d="M31.5919 32.9555C32.345 32.9555 32.9554 32.345 32.9554 31.592C32.9554 30.839 32.345 30.2285 31.5919 30.2285C30.8389 30.2285 30.2285 30.839 30.2285 31.592C30.2285 32.345 30.8389 32.9555 31.5919 32.9555Z" fill="#757575"/>
<path d="M20.0008 18.4108H36.3641C37.3295 18.4108 38.1192 19.1651 38.1756 20.116C38.1772 20.0773 38.182 20.0402 38.182 20.0016C38.182 18.9975 37.3681 18.1836 36.3641 18.1836H20.0008C18.9967 18.1836 18.1828 18.9975 18.1828 20.0016C18.1828 20.0402 18.1845 20.0773 18.1893 20.116C18.2457 19.1651 19.0338 18.4108 20.0008 18.4108Z" fill="white" fill-opacity="0.2"/>
<path d="M38.1756 20.1133C38.116 21.0626 37.3279 21.8184 36.3641 21.8184H20.0008C19.0354 21.8184 18.2457 21.0642 18.1893 20.1133C18.1845 20.152 18.1828 20.189 18.1828 20.2261C18.1828 21.2302 18.9967 22.0441 20.0008 22.0441H36.3641C37.3681 22.0441 38.182 21.2302 38.182 20.2261C38.182 20.189 38.1804 20.152 38.1756 20.1133Z" fill="#212121" fill-opacity="0.2"/>
<path d="M20.0008 7.50132C23.5143 7.50132 26.6957 8.92604 29.0004 11.2291L34.2544 5.97185C34.2157 5.93317 34.1787 5.89449 34.1416 5.85742L29.0004 11.0003C26.6957 8.69718 23.5143 7.27247 20.0008 7.27247C12.9707 7.27247 7.27347 12.9697 7.27347 19.9998C7.27347 20.0385 7.27508 20.0756 7.27508 20.1142C7.33632 13.1373 13.0094 7.50132 20.0008 7.50132Z" fill="#212121" fill-opacity="0.1"/>
<path d="M20.0008 40.0016C31.0469 40.0016 40.0016 31.0469 40.0016 20.0008C40.0016 8.95467 31.0469 0 20.0008 0C8.95467 0 0 8.95467 0 20.0008C0 31.0469 8.95467 40.0016 20.0008 40.0016Z" fill="url(#paint0_radial_298_6784)"/>
<defs>
<radialGradient id="paint0_radial_298_6784" cx="0" cy="0" r="1" gradientUnits="userSpaceOnUse" gradientTransform="translate(5.86536 5.81982) scale(39.9325)">
<stop stop-color="white" stop-opacity="0.1"/>
<stop offset="1" stop-color="white" stop-opacity="0"/>
</radialGradient>
</defs>
</svg>
