<svg width="12" height="12" viewBox="0 0 12 12" fill="none" xmlns="http://www.w3.org/2000/svg">
<path d="M6.61836 3.73064L7.44378 4.55606C7.82299 4.93524 8.12381 5.3854 8.32904 5.88084C8.53427 6.37628 8.6399 6.90729 8.6399 7.44356C8.6399 7.97983 8.53427 8.51084 8.32904 9.00628C8.12381 9.50172 7.82299 9.95188 7.44378 10.3311L7.23728 10.537C6.47146 11.3028 5.4328 11.733 4.34978 11.733C3.26675 11.733 2.22809 11.3028 1.46228 10.537C0.696465 9.77116 0.266235 8.7325 0.266235 7.64948C0.266235 6.56645 0.696465 5.52779 1.46228 4.76198L2.28769 5.58739C2.01491 5.8578 1.79822 6.17942 1.65007 6.5338C1.50192 6.88817 1.42522 7.26832 1.42438 7.65241C1.42354 8.03651 1.49857 8.41699 1.64517 8.77201C1.79177 9.12703 2.00704 9.4496 2.27864 9.7212C2.55024 9.99279 2.87281 10.2081 3.22783 10.3547C3.58285 10.5013 3.96333 10.5763 4.34742 10.5755C4.73152 10.5746 5.11167 10.4979 5.46604 10.3498C5.82042 10.2016 6.14204 9.98493 6.41244 9.71214L6.61894 9.50564C7.16573 8.95869 7.4729 8.21696 7.4729 7.44356C7.4729 6.67016 7.16573 5.92843 6.61894 5.38148L5.79353 4.55606L6.61894 3.73123L6.61836 3.73064ZM10.5372 7.23706L9.71236 6.41223C9.98514 6.14182 10.2018 5.8202 10.35 5.46582C10.4981 5.11145 10.5748 4.7313 10.5757 4.34721C10.5765 3.96311 10.5015 3.58263 10.3549 3.22761C10.2083 2.87259 9.99301 2.55002 9.72141 2.27842C9.44981 2.00683 9.12725 1.79155 8.77223 1.64495C8.41721 1.49835 8.03673 1.42332 7.65263 1.42416C7.26853 1.425 6.88839 1.5017 6.53401 1.64985C6.17964 1.798 5.85802 2.01469 5.58761 2.28748L5.38111 2.49398C4.83432 3.04093 4.52715 3.78266 4.52715 4.55606C4.52715 5.32946 4.83432 6.07119 5.38111 6.61814L6.20653 7.44356L5.38111 8.26839L4.55628 7.44356C4.17706 7.06438 3.87625 6.61422 3.67101 6.11878C3.46578 5.62334 3.36015 5.09233 3.36015 4.55606C3.36015 4.01979 3.46578 3.48878 3.67101 2.99334C3.87625 2.4979 4.17706 2.04774 4.55628 1.66856L4.76278 1.46264C5.52859 0.696831 6.56725 0.266602 7.65028 0.266602C8.7333 0.266602 9.77196 0.696831 10.5378 1.46264C11.3036 2.22846 11.7338 3.26712 11.7338 4.35014C11.7338 5.43317 11.3036 6.47183 10.5378 7.23764L10.5372 7.23706Z" fill="white"/>
</svg>
