<svg width="13" height="13" viewBox="0 0 13 13" fill="none" xmlns="http://www.w3.org/2000/svg">
<path d="M9.51804 8.69309L12.0165 11.1909L11.191 12.0163L8.69321 9.51792C7.76381 10.263 6.60779 10.6682 5.41663 10.6665C2.51863 10.6665 0.166626 8.3145 0.166626 5.4165C0.166626 2.5185 2.51863 0.166504 5.41663 0.166504C8.31463 0.166504 10.6666 2.5185 10.6666 5.4165C10.6683 6.60767 10.2631 7.76368 9.51804 8.69309ZM8.34788 8.26025C9.08819 7.49894 9.50163 6.47842 9.49996 5.4165C9.49996 3.16017 7.67238 1.33317 5.41663 1.33317C3.16029 1.33317 1.33329 3.16017 1.33329 5.4165C1.33329 7.67225 3.16029 9.49984 5.41663 9.49984C6.47854 9.50151 7.49906 9.08807 8.26038 8.34775L8.34788 8.26025V8.26025Z" fill="#2E2E2E"/>
</svg>
