<svg width="22" height="22" viewBox="0 0 22 22" fill="none" xmlns="http://www.w3.org/2000/svg">
<path d="M7.68588 3.00001L10.2929 0.393006C10.4804 0.205535 10.7347 0.10022 10.9999 0.10022C11.265 0.10022 11.5194 0.205535 11.7069 0.393006L14.3139 3.00001H17.9999C18.2651 3.00001 18.5195 3.10536 18.707 3.2929C18.8945 3.48044 18.9999 3.73479 18.9999 4.00001V7.68601L21.6069 10.293C21.7944 10.4805 21.8997 10.7348 21.8997 11C21.8997 11.2652 21.7944 11.5195 21.6069 11.707L18.9999 14.314V18C18.9999 18.2652 18.8945 18.5196 18.707 18.7071C18.5195 18.8946 18.2651 19 17.9999 19H14.3139L11.7069 21.607C11.5194 21.7945 11.265 21.8998 10.9999 21.8998C10.7347 21.8998 10.4804 21.7945 10.2929 21.607L7.68588 19H3.99988C3.73467 19 3.48031 18.8946 3.29278 18.7071C3.10524 18.5196 2.99988 18.2652 2.99988 18V14.314L0.392884 11.707C0.205413 11.5195 0.100098 11.2652 0.100098 11C0.100098 10.7348 0.205413 10.4805 0.392884 10.293L2.99988 7.68601V4.00001C2.99988 3.73479 3.10524 3.48044 3.29278 3.2929C3.48031 3.10536 3.73467 3.00001 3.99988 3.00001H7.68588ZM4.99988 5.00001V8.51501L2.51488 11L4.99988 13.485V17H8.51488L10.9999 19.485L13.4849 17H16.9999V13.485L19.4849 11L16.9999 8.51501V5.00001H13.4849L10.9999 2.51501L8.51488 5.00001H4.99988ZM10.9999 15C9.93902 15 8.9216 14.5786 8.17146 13.8284C7.42131 13.0783 6.99988 12.0609 6.99988 11C6.99988 9.93914 7.42131 8.92173 8.17146 8.17158C8.9216 7.42143 9.93902 7.00001 10.9999 7.00001C12.0608 7.00001 13.0782 7.42143 13.8283 8.17158C14.5785 8.92173 14.9999 9.93914 14.9999 11C14.9999 12.0609 14.5785 13.0783 13.8283 13.8284C13.0782 14.5786 12.0608 15 10.9999 15ZM10.9999 13C11.5303 13 12.039 12.7893 12.4141 12.4142C12.7892 12.0391 12.9999 11.5304 12.9999 11C12.9999 10.4696 12.7892 9.96087 12.4141 9.58579C12.039 9.21072 11.5303 9.00001 10.9999 9.00001C10.4695 9.00001 9.96074 9.21072 9.58567 9.58579C9.2106 9.96087 8.99988 10.4696 8.99988 11C8.99988 11.5304 9.2106 12.0391 9.58567 12.4142C9.96074 12.7893 10.4695 13 10.9999 13Z" fill="#2E2E2E"/>
</svg>
