<svg width="24" height="8" viewBox="0 0 24 8" fill="none" xmlns="http://www.w3.org/2000/svg">
<path d="M22.222 7.648L21.997 6.523H19.483L19.083 7.64L17.068 7.644C18.0273 5.33714 18.9886 3.03114 19.952 0.726C20.116 0.335 20.407 0.136 20.836 0.138C21.164 0.141 21.699 0.141 22.442 0.139L24 7.645L22.222 7.648ZM20.049 4.982H21.669L21.064 2.162L20.049 4.982ZM7.06 0.137L9.086 0.139L5.954 7.649L3.903 7.647C3.38725 5.66332 2.87791 3.67797 2.375 1.691C2.275 1.295 2.077 1.018 1.696 0.887C1.357 0.77 0.792 0.59 0 0.345V0.14H3.237C3.797 0.14 4.124 0.411 4.229 0.967C4.335 1.524 4.601 2.942 5.029 5.221L7.06 0.137ZM11.87 0.139L10.268 7.647L8.34 7.645L9.94 0.137L11.87 0.139ZM15.78 0C16.357 0 17.084 0.18 17.502 0.345L17.164 1.902C16.786 1.75 16.164 1.545 15.641 1.552C14.881 1.565 14.411 1.884 14.411 2.19C14.411 2.688 15.227 2.939 16.067 3.483C17.026 4.103 17.152 4.66 17.14 5.265C17.127 6.521 16.067 7.76 13.831 7.76C12.811 7.745 12.443 7.659 11.611 7.364L11.963 5.739C12.81 6.094 13.169 6.207 13.893 6.207C14.556 6.207 15.125 5.939 15.13 5.472C15.134 5.14 14.93 4.975 14.186 4.565C13.442 4.154 12.398 3.585 12.412 2.443C12.429 0.981 13.814 0 15.781 0H15.78Z" fill="#283A8F"/>
</svg>
